<svg xmlns="http://www.w3.org/2000/svg" viewBox="0 0 512 506"><defs><style>.cls-1{fill:#fff;}.cls-2{fill:#c20017;}.cls-3{fill:#036;}</style></defs><rect id="white-bg" class="cls-1" width="512" height="506"/><path id="channel" class="cls-2" d="M422.63,454.2H404.14c.65-4.42,4-6.79,9.25-6.79C419,447.41,422.53,449.9,422.63,454.2ZM501.43,495H10.61V410.93l490.82-.18Zm-454-37.26c0-6.23,3-9.47,8.59-9.47,3.83,0,6.26,1.56,7.19,4.61H79.59c-1-8-9.81-12.89-23.44-12.89-15.5,0-25.4,6.79-25.4,18.06,0,10.34,9.71,17.25,24.56,17.25,13.63,0,22.6-4.92,24.19-13.33h-16c-.93,3.24-3.46,4.8-7.66,4.8C50.17,466.78,47.46,463.79,47.46,457.75Zm100.12-5.69c0-7.35-5.6-11.21-16-11.21-6.72,0-11.49,1.62-15.22,5.17V430H100.14v44.79h16.16V457.1c0-5.42,2.33-8,8.22-8,6.44,0,6.82,2.93,6.82,9v16.63h16.25ZM217.35,473c-1.68-.56-2.43-2.3-2.43-5.23V455.24c0-4.55-.19-7.91-3.27-10.59-3.46-2.93-9.52-4.3-18.21-4.3-14.1,0-21.76,3.55-23.35,11.09H185c.65-2.43,3.36-3.74,8-3.74,4.2,0,6.44,1,6.44,2.93v.81c0,2.56-6.16,2.06-17.65,3.86-8.78,1.37-13.17,4.73-13.17,10.28,0,5.85,5.79,9.72,15.5,9.72A27.23,27.23,0,0,0,200,470.81a18.43,18.43,0,0,0,.84,3.43h16.53Zm71.93-20.19c0-8.47-4.48-12.4-16.53-12.4-6.82,0-11.67,1.74-15,5.36v-4.55H241.84v33.08H258V456.59c0-5.42,2.33-8,8.22-8,6.44,0,6.82,2.93,6.82,9v16.63h16.25Zm76.72,0c0-8.47-4.48-12.4-16.53-12.4-6.82,0-11.67,1.74-15,5.36v-4.55H318.56v33.08h16.16V456.59c0-5.42,2.33-8,8.22-8,6.44,0,6.82,2.93,6.82,9v16.63H366Zm72.23,5.57c0-11.52-9.71-18.31-25.31-18.31-15.13,0-24.93,6.73-24.93,17.81,0,10.78,9.62,17.38,24.93,17.38,12.7,0,21.57-4.17,24.47-11.4H421.79c-1.12,2.37-3.92,3.61-8.31,3.61-5.79,0-8.87-2.49-8.87-7.16h33.53A13.53,13.53,0,0,0,438.22,458.37ZM476.81,430H460.57v44.79h16.25ZM184.1,464.33c0,2.31,2.33,3.92,6,3.92,5.51,0,9.43-2.3,9.43-5.79v-3.8c-2.8,1.18-6.44,1.31-10.09,2S184.1,462.34,184.1,464.33Z"/><path id="foxnews" class="cls-3" d="M83.65,48.11l-73.11,348V65.71l.32-.11A386.91,386.91,0,0,1,83.65,48.11ZM308.5,156.28v53.23a11.29,11.29,0,0,0,22.56.16l.23-53.38a11.9,11.9,0,0,0-11.59-11.54C313.5,144.74,308.5,150.19,308.5,156.28Zm52.94-40.86h9.28q-10-7.33-20.54-14.09A393.76,393.76,0,0,0,235.92,51.42l25.84-40.85H501.55l0,267.92q-6.19-14.08-13.36-27.56h-6.06a396.91,396.91,0,0,1,18.48,39l.94,2.42V402.72l-487.79.05L80.52,297.14l.09-35h22l68.77-108.73V115.23h24.14l37.31-59A392.23,392.23,0,0,1,361.43,115.42ZM176.57,246h36.61l0-40.6h36V171.1H213.5V154.72h43.88L255,120.38h-78.4ZM182,267.29l-28.55-.05v57.65L119,267.29H85.74l-.28,114.14,29.39-.06V315.24l39.37,66.18H182Zm82.27,87.44H218.22v-19.5h37.39V310.42H218.22V293.56h45.49V266.78H189.37V381.5h74.91ZM376,381.5l26.87-114.72H379l-14.3,66.28-14-66.28H326l-13.29,66.95L298.8,266.78H269.32L296.05,381.5h26.87l13.15-65.29,13.58,65.29Zm68.27-118.45c-26.36,0-42.47,16.2-42.47,38,0,18.84,10.83,28.1,33.2,34.71,13.11,4,20.09,3.64,20.09,12.07,0,4.46-4.13,7.93-11.12,7.93-10.69,0-16.81-4.79-19-14.38l-27.79,6.11c4.7,22.15,21.09,35,46.17,35,13.54,0,24.94-4.79,33.06-13.55a37.33,37.33,0,0,0,9.69-25.46c0-10.25-3.28-18.68-9.55-24.46-7.7-7.11-16.67-8.93-26.36-11.74-11.68-3.31-18.1-3.64-18.1-10.41,0-4.46,4.13-8.26,10.12-8.26,8.12,0,13,3.31,16,11.57l25.22-8.43C477.14,273.13,463.6,263.05,444.22,263.05Zm-77-142.49L403.27,181l-37.44,64.74,39.61,0,18-30.87,18.44,30.9h40.52l-39-65.16,35.06-60.06H438.25l-15.09,26.09-15.6-26.09Zm-47.3,0c-35.52,0-64.32,28.35-64.32,63.31s28.8,63.31,64.32,63.31,64.32-28.35,64.32-63.31S355.4,120.56,319.88,120.56ZM11.55,402.77,181.79,46.86a385.51,385.51,0,0,0-46.38-2.53L11,402.77Zm187.6-392.2h-52L137.26,39a396.32,396.32,0,0,1,47,2.75Zm-107.61,0h-81V59.84A393,393,0,0,1,84.84,42.48Z"/></svg>